<?xml version="1.0" standalone="no"?>
<!DOCTYPE svg PUBLIC "-//W3C//DTD SVG 20010904//EN"
 "http://www.w3.org/TR/2001/REC-SVG-20010904/DTD/svg10.dtd">
<svg version="1.0" xmlns="http://www.w3.org/2000/svg"
 width="384.000000pt" height="102.000000pt" viewBox="0 0 384.000000 102.000000"
 preserveAspectRatio="xMidYMid meet">
<metadata>
Created by potrace 1.10, written by Peter Selinger 2001-2011
</metadata>
<g transform="translate(0.000000,102.000000) scale(0.100000,-0.100000)"
fill="#000000" stroke="none">
<path d="M109 794 l-34 -35 1 -94 c1 -69 6 -102 18 -120 9 -13 16 -33 16 -43
0 -11 7 -25 15 -32 8 -7 15 -17 15 -22 0 -6 13 -30 30 -55 16 -24 30 -47 30
-51 0 -4 9 -25 20 -47 32 -63 24 -104 -18 -91 -20 7 -62 77 -62 103 0 24 -19
43 -42 43 -22 0 -23 -38 -4 -120 l12 -55 72 -3 c86 -3 111 10 141 74 37 77 23
176 -40 294 -59 111 -109 216 -109 230 0 11 4 22 10 25 20 12 43 -13 70 -76
25 -61 51 -83 70 -62 10 10 -6 141 -19 157 -6 6 -42 13 -83 14 -73 2 -75 1
-109 -34z"/>
<path d="M374 815 c-4 -8 -1 -28 5 -43 9 -20 11 -105 8 -288 -3 -142 -6 -270
-8 -284 -4 -25 -4 -25 76 -25 l80 0 -4 30 c-6 57 -12 400 -6 423 8 31 43 29
55 -4 6 -14 10 -116 10 -228 0 -144 3 -205 12 -214 18 -18 113 -15 128 3 10
13 10 19 -4 33 -14 16 -16 48 -16 226 0 197 -1 208 -22 236 -18 26 -29 30 -67
30 -28 0 -51 -6 -63 -17 -27 -24 -36 -8 -40 67 l-3 65 -68 3 c-54 2 -68 0 -73
-13z"/>
<path d="M1549 823 c0 -5 -2 -17 -3 -28 -2 -11 -5 -40 -7 -65 -4 -42 -2 -45
20 -45 21 0 27 7 36 46 7 26 15 52 19 58 21 33 26 -21 26 -273 0 -235 -2 -275
-15 -286 -9 -7 -15 -23 -13 -34 3 -20 9 -21 103 -21 94 0 100 1 103 21 2 11
-4 27 -13 34 -13 11 -15 51 -15 286 0 174 4 275 10 279 11 7 49 -69 50 -97 0
-19 20 -24 36 -8 5 5 7 37 4 72 l-5 63 -167 3 c-93 1 -168 -1 -169 -5z"/>
<path d="M3164 815 c-4 -9 -2 -27 5 -41 6 -14 11 -36 11 -49 0 -23 -2 -23 -55
-18 -63 7 -84 -6 -116 -69 -16 -32 -19 -60 -19 -198 0 -169 6 -196 52 -246 18
-20 30 -22 153 -22 105 -1 136 2 146 14 9 11 8 18 -4 32 -15 16 -17 58 -19
313 l-3 294 -73 3 c-59 2 -73 0 -78 -13z m11 -375 c0 -187 -2 -205 -17 -208
-30 -6 -38 40 -38 208 0 168 8 214 38 208 15 -3 17 -21 17 -208z"/>
<path d="M844 672 c-60 -54 -76 -108 -76 -248 0 -92 3 -119 16 -133 9 -10 16
-25 16 -34 0 -8 20 -32 44 -51 85 -71 178 -38 241 83 13 27 18 61 19 150 0
102 -2 122 -22 163 -34 69 -87 108 -148 108 -43 0 -54 -5 -90 -38z m116 -18
c11 -28 12 -370 1 -419 -8 -39 -38 -45 -51 -10 -13 34 -13 396 0 429 5 14 16
26 25 26 9 0 20 -12 25 -26z"/>
<path d="M1154 695 c-4 -8 -3 -27 1 -43 7 -23 8 -469 2 -542 -2 -25 -1 -25 81
-28 92 -3 108 7 78 53 -29 44 -12 82 23 51 26 -23 74 -20 97 6 52 61 59 92 59
262 l0 161 -35 47 c-32 43 -39 47 -77 48 -24 0 -43 -5 -45 -12 -4 -10 -10 -10
-32 0 -40 18 -145 16 -152 -3z m196 -65 c7 -12 9 -89 8 -207 -3 -175 -4 -188
-22 -191 -10 -2 -22 2 -27 10 -10 15 -12 368 -3 392 8 22 31 20 44 -4z"/>
<path d="M1936 694 c-4 -9 0 -27 9 -40 22 -35 22 -406 0 -424 -9 -7 -15 -23
-13 -34 3 -19 10 -21 96 -24 l92 -3 0 30 c0 16 -4 31 -10 33 -10 3 -16 335 -6
345 3 3 20 0 37 -7 28 -12 33 -12 45 5 18 24 18 95 0 118 -20 26 -55 22 -66
-8 -12 -31 -22 -32 -35 -2 -9 19 -19 22 -76 25 -55 2 -68 0 -73 -14z"/>
<path d="M2313 674 c-24 -20 -43 -43 -43 -52 0 -9 -7 -26 -15 -36 -22 -29 -22
-278 0 -296 8 -7 15 -20 15 -29 0 -17 41 -61 58 -61 5 0 15 -7 22 -15 8 -10
30 -15 64 -15 45 1 55 5 88 38 32 32 38 45 40 87 3 47 2 50 -22 50 -22 0 -26
-5 -33 -55 -10 -63 -30 -90 -64 -90 -35 0 -53 51 -53 149 0 92 -1 91 100 91
42 0 71 5 78 13 16 20 -6 144 -33 186 -31 50 -66 71 -117 71 -34 0 -51 -7 -85
-36z m115 -93 c1 -52 -1 -98 -7 -104 -5 -5 -18 -6 -30 -2 -19 6 -21 14 -21 80
0 87 12 128 38 123 14 -3 17 -17 20 -97z"/>
<path d="M2595 701 c-3 -5 -1 -49 4 -98 8 -74 7 -252 -2 -393 l-2 -35 80 0 80
0 -4 30 c-2 17 -4 122 -5 235 l-1 205 25 0 25 0 5 -225 c3 -124 9 -231 13
-237 5 -8 31 -13 68 -13 65 0 83 15 61 51 -8 13 -12 85 -12 219 l0 199 -31 36
c-27 30 -37 35 -74 35 -26 0 -45 -5 -47 -12 -4 -10 -10 -10 -32 0 -31 14 -142
16 -151 3z"/>
<path d="M3391 688 c-5 -13 -10 -46 -12 -73 -4 -45 -2 -50 16 -50 15 0 24 12
36 49 16 48 40 73 59 61 6 -4 7 -13 1 -23 -5 -10 -14 -40 -20 -67 -10 -48 -19
-85 -46 -190 -7 -27 -19 -70 -25 -95 -7 -25 -14 -64 -17 -87 l-5 -43 115 0
c64 0 118 3 120 7 3 5 7 37 9 73 2 52 0 65 -13 68 -11 2 -20 -13 -33 -53 -17
-55 -38 -77 -56 -59 -9 9 2 70 22 129 6 17 14 48 18 70 11 53 29 119 46 175 7
25 15 63 16 85 l3 40 -113 3 c-109 3 -112 2 -121 -20z"/>
</g>
</svg>
