<?xml version="1.0" standalone="no"?>
<!DOCTYPE svg PUBLIC "-//W3C//DTD SVG 20010904//EN"
 "http://www.w3.org/TR/2001/REC-SVG-20010904/DTD/svg10.dtd">
<svg version="1.0" xmlns="http://www.w3.org/2000/svg"
 width="100.000000pt" height="52.000000pt" viewBox="0 0 100.000000 52.000000"
 preserveAspectRatio="xMidYMid meet">

<g transform="translate(0.000000,52.000000) scale(0.100000,-0.100000)"
fill="#000000" stroke="none">
<path d="M191 279 c-12 -39 -19 -74 -15 -77 3 -4 9 -1 11 6 3 7 16 25 29 40
l24 27 -10 -29 c-13 -34 2 -58 22 -38 8 8 9 12 1 12 -8 0 -8 8 0 30 14 36 3
49 -25 31 -18 -11 -20 -11 -14 4 14 36 18 65 9 65 -5 0 -19 -32 -32 -71z"/>
<path d="M909 320 c-7 -18 -18 -30 -28 -30 -20 0 -48 -27 -51 -50 -5 -34 0
-38 43 -35 54 3 55 4 38 14 -13 9 -8 35 24 114 4 10 3 17 -4 17 -7 0 -17 -13
-22 -30z m-19 -45 c0 -4 -8 -20 -17 -38 -16 -30 -18 -31 -21 -9 -2 13 2 30 8
38 12 14 30 19 30 9z"/>
<path d="M116 325 c-20 -21 -21 -53 0 -76 9 -10 13 -23 8 -30 -5 -9 -10 -8
-20 5 -8 11 -14 13 -19 7 -17 -28 33 -43 54 -17 10 11 9 21 -4 46 -18 35 -14
60 10 60 12 0 14 -6 9 -27 -7 -26 -6 -27 10 -14 23 19 17 55 -10 59 -12 2 -29
-4 -38 -13z"/>
<path d="M487 333 c-4 -3 -7 -13 -7 -21 0 -12 3 -12 15 -2 9 7 18 10 21 7 7
-7 -14 -77 -29 -95 -5 -7 -7 -16 -3 -20 11 -11 36 28 48 76 8 31 15 42 29 42
11 0 19 5 19 10 0 11 -83 14 -93 3z"/>
<path d="M296 274 c-21 -21 -17 -68 6 -72 24 -5 60 35 56 61 -4 28 -39 34 -62
11z m39 -16 c-4 -13 -13 -30 -21 -38 -12 -12 -14 -11 -14 11 0 25 16 49 33 49
4 0 5 -10 2 -22z"/>
<path d="M371 231 c-7 -31 -15 -62 -18 -68 -2 -7 0 -13 6 -13 6 0 13 11 17 25
4 16 13 25 25 25 27 0 61 37 57 63 -2 18 -10 22 -39 23 -35 1 -36 1 -48 -55z
m69 36 c0 -19 -30 -58 -41 -52 -5 4 -2 19 6 36 16 30 35 39 35 16z"/>
<path d="M566 248 c-9 -53 -3 -57 22 -13 12 19 28 35 37 35 8 0 15 4 15 9 0 5
-15 9 -34 9 -32 0 -34 -2 -40 -40z"/>
<path d="M653 278 c-18 -24 -23 -51 -12 -64 14 -17 45 -18 55 -3 4 8 0 9 -15
4 -29 -9 -26 9 4 23 33 15 34 52 1 52 -13 0 -28 -6 -33 -12z m32 -17 c-3 -6
-11 -11 -17 -11 -6 0 -6 6 2 15 14 17 26 13 15 -4z"/>
<path d="M731 249 c-7 -23 -11 -43 -8 -45 8 -9 46 56 41 70 -10 26 -20 18 -33
-25z"/>
<path d="M775 280 c-3 -5 -2 -10 4 -10 7 0 7 -8 0 -27 -12 -31 3 -55 23 -35 9
9 9 12 0 12 -9 0 -10 5 -2 19 5 11 10 27 10 35 0 18 -25 22 -35 6z"/>
</g>
</svg>
