<?xml version="1.0" standalone="no"?>
<!DOCTYPE svg PUBLIC "-//W3C//DTD SVG 20010904//EN"
 "http://www.w3.org/TR/2001/REC-SVG-20010904/DTD/svg10.dtd">
<svg version="1.0" xmlns="http://www.w3.org/2000/svg"
 width="100.000000pt" height="40.000000pt" viewBox="0 0 100.000000 40.000000"
 preserveAspectRatio="xMidYMid meet">

<g transform="translate(0.000000,40.000000) scale(0.100000,-0.100000)"
fill="#000000" stroke="none">
<path d="M766 307 c-5 -9 -6 -29 -3 -43 4 -20 1 -24 -12 -18 -62 26 -111 -2
-111 -63 0 -57 63 -93 110 -63 9 6 17 5 22 -3 12 -20 13 -5 8 103 -4 67 -9 99
-14 87z m-17 -81 c7 -8 11 -32 9 -53 -2 -31 -8 -39 -30 -47 -50 -18 -86 41
-58 95 13 23 62 26 79 5z"/>
<path d="M84 301 l39 -6 -2 -92 c-1 -58 2 -93 8 -93 6 0 11 38 13 93 l3 92 40
6 c26 4 9 6 -50 6 -57 0 -76 -2 -51 -6z"/>
<path d="M210 185 c0 -43 4 -75 10 -75 6 0 10 22 10 48 0 49 20 82 48 82 7 0
12 5 12 10 0 14 -12 12 -38 -6 -20 -14 -22 -14 -22 0 0 9 -4 16 -10 16 -6 0
-10 -32 -10 -75z"/>
<path d="M326 239 c-54 -42 -23 -129 47 -129 35 0 66 15 54 26 -4 4 -13 2 -19
-4 -18 -18 -53 -15 -71 6 -31 34 -21 42 49 42 63 0 65 1 59 23 -9 30 -42 57
-70 57 -12 0 -34 -9 -49 -21z m67 0 c22 -12 37 -28 37 -41 0 -5 -25 -8 -55 -8
-61 0 -73 16 -33 44 27 19 24 19 51 5z"/>
<path d="M480 185 c0 -88 16 -101 22 -17 4 63 0 92 -13 92 -5 0 -9 -34 -9 -75z"/>
<path d="M521 246 c-10 -12 -7 -14 21 -13 l33 2 3 -62 c2 -47 7 -63 17 -63 19
0 20 84 2 120 -14 29 -58 38 -76 16z"/>
<path d="M820 251 c0 -6 21 -11 46 -13 l46 -3 -46 -56 c-25 -31 -46 -59 -46
-63 0 -3 28 -5 63 -4 l62 1 -52 6 -52 6 50 60 c27 33 49 63 49 67 0 5 -27 8
-60 8 -33 0 -60 -4 -60 -9z"/>
</g>
</svg>
