<?xml version="1.0" standalone="no"?>
<!DOCTYPE svg PUBLIC "-//W3C//DTD SVG 20010904//EN"
 "http://www.w3.org/TR/2001/REC-SVG-20010904/DTD/svg10.dtd">
<svg version="1.0" xmlns="http://www.w3.org/2000/svg"
 width="200.000000pt" height="45.000000pt" viewBox="0 0 200.000000 45.000000"
 preserveAspectRatio="xMidYMid meet">

<g transform="translate(0.000000,45.000000) scale(0.100000,-0.100000)"
fill="#000000" stroke="none">
<path d="M270 241 c0 -119 2 -141 15 -141 12 0 15 14 15 69 0 63 2 71 26 90
31 25 44 26 68 8 15 -11 20 -31 24 -90 7 -107 25 -99 21 9 -3 71 -7 88 -23
100 -28 20 -59 17 -89 -6 l-26 -21 -3 57 c-2 35 -8 59 -15 62 -10 3 -13 -29
-13 -137z"/>
<path d="M1892 243 l3 -138 33 -3 c36 -4 45 15 10 20 -22 3 -23 7 -26 131 -1
76 -7 127 -13 127 -6 0 -9 -51 -7 -137z"/>
<path d="M55 345 c-50 -49 -25 -96 64 -121 31 -9 62 -21 69 -26 19 -16 14 -56
-7 -68 -28 -15 -87 -12 -121 5 -17 9 -31 11 -35 5 -10 -16 52 -40 105 -40 41
0 56 5 75 25 47 46 22 95 -57 115 -73 18 -88 28 -88 54 0 40 27 59 74 53 23
-3 49 -8 59 -12 27 -11 20 11 -8 23 -45 21 -103 15 -130 -13z"/>
<path d="M1180 234 l0 -136 76 4 c71 3 78 6 105 35 56 64 47 165 -20 210 -26
18 -48 23 -97 23 l-64 0 0 -136z m147 96 c19 -11 35 -31 39 -47 3 -15 7 -33 9
-40 8 -24 -17 -83 -42 -103 -19 -14 -40 -20 -79 -20 l-54 0 0 115 0 115 48 0
c29 0 59 -7 79 -20z"/>
<path d="M544 290 c-48 -19 -71 -100 -43 -152 30 -55 135 -54 164 2 30 59 16
119 -35 145 -32 17 -54 18 -86 5z m86 -30 c42 -42 36 -103 -14 -135 -72 -47
-144 68 -81 130 29 30 68 32 95 5z"/>
<path d="M738 294 c-12 -11 -10 -274 2 -274 6 0 10 25 10 55 0 51 10 69 25 44
13 -20 53 -29 85 -18 86 30 74 178 -15 195 -25 4 -42 1 -60 -10 -30 -20 -33
-20 -37 0 -2 9 -6 12 -10 8z m134 -44 c25 -26 29 -36 24 -63 -6 -33 -47 -77
-71 -77 -7 0 -27 12 -44 26 -40 33 -43 83 -6 119 32 33 60 31 97 -5z"/>
<path d="M940 297 c0 -2 18 -46 41 -97 45 -101 48 -153 9 -165 -11 -4 -20 -11
-20 -16 0 -13 36 -11 47 4 17 20 114 269 108 275 -9 10 -21 -11 -51 -90 -16
-43 -31 -78 -35 -78 -3 0 -21 37 -40 82 -19 45 -40 83 -46 86 -7 2 -13 2 -13
-1z"/>
<path d="M1494 291 c-51 -22 -71 -105 -38 -156 30 -46 104 -52 151 -13 25 20
1 28 -24 8 -34 -27 -69 -25 -98 5 -46 45 -35 55 60 55 83 0 85 0 85 24 0 56
-80 101 -136 77z m95 -37 c12 -15 21 -31 21 -35 0 -5 -34 -9 -75 -9 -41 0 -75
4 -75 9 0 4 9 20 21 35 28 36 80 36 108 0z"/>
<path d="M1703 290 c-13 -5 -23 -14 -23 -20 0 -7 6 -8 19 0 26 14 74 13 89 -2
7 -7 12 -22 12 -35 0 -21 -5 -23 -48 -23 -88 0 -121 -57 -60 -103 26 -20 29
-20 70 -4 26 11 44 13 46 7 2 -5 9 -10 16 -10 14 0 10 118 -5 158 -14 36 -69
51 -116 32z m95 -122 c6 -47 -62 -76 -100 -41 -22 20 -23 31 -1 55 12 14 28
18 57 16 36 -3 41 -6 44 -30z"/>
</g>
</svg>
