<?xml version="1.0" standalone="no"?>
<!DOCTYPE svg PUBLIC "-//W3C//DTD SVG 20010904//EN"
 "http://www.w3.org/TR/2001/REC-SVG-20010904/DTD/svg10.dtd">
<svg version="1.0" xmlns="http://www.w3.org/2000/svg"
 width="128.000000pt" height="34.000000pt" viewBox="0 0 128.000000 34.000000"
 preserveAspectRatio="xMidYMid meet">
<metadata>
Created by potrace 1.10, written by Peter Selinger 2001-2011
</metadata>
<g transform="translate(0.000000,34.000000) scale(0.100000,-0.100000)"
fill="#000000" stroke="none">
<path d="M36 264 c-13 -33 -5 -80 19 -119 25 -41 32 -75 15 -75 -5 0 -12 11
-16 25 -9 35 -24 31 -24 -5 0 -28 3 -30 35 -30 29 0 37 5 46 26 11 30 -1 77
-32 129 -21 33 -24 55 -9 55 5 0 12 -11 16 -25 9 -35 24 -31 24 5 0 27 -3 30
-34 30 -22 0 -36 -6 -40 -16z"/>
<path d="M124 271 c13 -20 17 -183 5 -197 -9 -12 -6 -14 22 -14 l34 0 -6 73
c-6 75 -4 87 12 87 5 0 9 -36 9 -80 0 -76 1 -80 23 -80 22 0 22 3 19 78 -4
101 -6 106 -41 99 -25 -5 -28 -4 -23 19 4 21 1 24 -27 24 -18 0 -30 -4 -27 -9z"/>
<path d="M516 264 c-15 -38 4 -48 22 -11 9 17 11 0 9 -86 l-2 -107 30 0 30 0
-2 107 c-2 86 0 103 9 86 15 -30 28 -29 26 2 -2 23 -6 25 -59 25 -43 0 -58 -4
-63 -16z"/>
<path d="M1050 271 c0 -6 5 -13 10 -16 18 -11 10 -23 -11 -18 -32 9 -49 -21
-49 -85 0 -79 10 -92 71 -92 43 0 50 3 45 16 -3 9 -6 58 -6 110 l0 94 -30 0
c-16 0 -30 -4 -30 -9z m18 -118 c-2 -42 -8 -68 -15 -71 -10 -3 -13 15 -13 67
0 57 3 71 15 71 13 0 15 -12 13 -67z"/>
<path d="M276 218 c-9 -12 -16 -43 -16 -68 0 -54 22 -90 55 -90 33 0 55 36 55
90 0 54 -22 90 -55 90 -13 0 -31 -10 -39 -22z m54 -58 c0 -64 -7 -93 -21 -84
-10 6 -12 137 -3 147 15 15 24 -8 24 -63z"/>
<path d="M385 135 l0 -105 33 0 c34 0 40 8 20 29 -11 10 -8 11 14 6 35 -9 48
16 48 93 0 70 -8 79 -70 81 l-45 1 0 -105z m75 14 c0 -52 -3 -70 -12 -67 -13
5 -24 99 -14 124 14 36 26 9 26 -57z"/>
<path d="M655 150 c0 -90 0 -90 25 -90 25 0 26 1 22 72 -4 63 -3 70 12 65 20
-8 34 19 17 36 -8 8 -15 6 -26 -9 -12 -16 -14 -16 -9 -1 5 13 1 17 -17 17 -23
0 -24 -2 -24 -90z"/>
<path d="M766 218 c-23 -33 -21 -113 4 -138 23 -23 50 -26 68 -8 15 15 16 48
2 48 -5 0 -10 -9 -10 -19 0 -25 -20 -38 -31 -20 -5 8 -9 26 -9 42 0 24 4 27
34 27 33 0 34 1 26 34 -4 18 -10 39 -14 45 -12 19 -54 12 -70 -11z m54 -29 c0
-19 -5 -29 -15 -29 -15 0 -22 50 -9 63 12 12 24 -4 24 -34z"/>
<path d="M865 150 l0 -90 27 0 27 0 -6 80 c-4 69 -3 80 11 80 13 0 16 -13 16
-80 0 -76 1 -80 23 -80 22 0 22 3 19 78 -2 42 -5 82 -7 88 -2 7 -26 12 -57 13
l-53 0 0 -89z"/>
<path d="M1130 214 c0 -14 4 -23 10 -19 6 3 10 13 10 21 0 8 5 14 11 14 7 0 8
-7 4 -17 -7 -20 -35 -133 -35 -145 0 -5 18 -8 40 -8 22 0 40 4 40 9 0 5 3 16
6 25 3 9 1 16 -4 16 -6 0 -14 -9 -17 -20 -3 -11 -10 -20 -15 -20 -5 0 2 38 15
85 l23 85 -44 0 c-41 0 -44 -2 -44 -26z"/>
</g>
</svg>
