<?xml version="1.0" standalone="no"?>
<!DOCTYPE svg PUBLIC "-//W3C//DTD SVG 20010904//EN"
 "http://www.w3.org/TR/2001/REC-SVG-20010904/DTD/svg10.dtd">
<svg version="1.0" xmlns="http://www.w3.org/2000/svg"
 width="100.000000pt" height="38.000000pt" viewBox="0 0 100.000000 38.000000"
 preserveAspectRatio="xMidYMid meet">

<g transform="translate(0.000000,38.000000) scale(0.100000,-0.100000)"
fill="#000000" stroke="none">
<path d="M167 233 l32 -4 4 -67 3 -67 2 67 c2 64 3 67 30 71 15 2 -2 4 -38 4
-36 0 -51 -2 -33 -4z"/>
<path d="M661 218 c-1 -25 -4 -27 -31 -22 -38 8 -60 -10 -60 -47 0 -36 39 -65
67 -51 10 5 23 8 28 6 6 -3 9 17 7 48 -4 70 -9 101 -11 66z m-13 -40 c36 -36
-6 -91 -46 -62 -35 24 -23 74 18 74 9 0 21 -5 28 -12z"/>
<path d="M865 200 c-3 -5 -15 -10 -26 -10 -23 0 -25 -15 -4 -24 14 -5 14 -9
-1 -33 l-16 -28 21 24 c14 16 18 27 12 35 -7 8 -4 16 10 24 16 10 24 9 43 -3
16 -11 26 -13 31 -6 3 7 -2 11 -14 11 -11 0 -23 5 -26 10 -3 6 -10 10 -15 10
-5 0 -12 -4 -15 -10z"/>
<path d="M262 150 c1 -42 2 -46 5 -18 3 24 12 43 26 53 12 8 16 15 10 15 -7 0
-15 -5 -19 -11 -4 -8 -9 -7 -15 2 -5 9 -8 -7 -7 -41z"/>
<path d="M336 184 c-22 -21 -20 -50 4 -74 24 -24 40 -25 66 -5 18 14 17 14 -8
4 -21 -9 -31 -9 -43 1 -24 20 -18 29 27 32 46 3 57 17 33 42 -21 20 -59 21
-79 0z m72 -16 c3 -15 -4 -18 -32 -18 -34 0 -47 15 -29 34 13 13 58 1 61 -16z"/>
<path d="M452 150 c0 -52 1 -53 8 -17 8 45 21 60 46 55 14 -2 21 -15 25 -48
l7 -45 -2 50 c-1 44 -4 50 -24 53 -13 2 -29 -1 -37 -8 -10 -8 -14 -8 -18 2 -3
7 -5 -12 -5 -42z"/>
<path d="M733 193 l37 -4 -35 -41 c-19 -23 -33 -44 -30 -46 3 -3 6 -3 8 -1 1
2 17 23 35 46 17 23 32 44 32 47 0 3 -19 5 -42 4 l-43 -1 38 -4z"/>
<path d="M910 130 c0 -5 5 -10 11 -10 5 0 7 5 4 10 -3 6 -8 10 -11 10 -2 0 -4
-4 -4 -10z"/>
</g>
</svg>
