<?xml version="1.0" standalone="no"?>
<!DOCTYPE svg PUBLIC "-//W3C//DTD SVG 20010904//EN"
 "http://www.w3.org/TR/2001/REC-SVG-20010904/DTD/svg10.dtd">
<svg version="1.0" xmlns="http://www.w3.org/2000/svg"
 width="311.000000pt" height="70.000000pt" viewBox="0 0 311.000000 70.000000"
 preserveAspectRatio="xMidYMid meet">

<g transform="translate(0.000000,70.000000) scale(0.100000,-0.100000)"
fill="#000000" stroke="none">
<path d="M427 584 c-4 -4 -7 -103 -7 -221 0 -206 1 -213 20 -213 19 0 20 7 20
95 0 109 13 146 60 170 92 48 129 -3 130 -177 0 -81 2 -88 20 -88 18 0 20 7
20 78 0 119 -10 177 -35 208 -20 25 -30 29 -69 28 -36 -1 -55 -8 -86 -33 l-39
-31 -3 92 c-3 84 -12 111 -31 92z"/>
<path d="M2940 387 c0 -232 2 -240 65 -235 43 3 62 28 22 28 -53 0 -57 15 -57
221 0 161 -2 189 -15 189 -13 0 -15 -29 -15 -203z"/>
<path d="M138 568 c-51 -14 -88 -59 -88 -107 0 -60 20 -77 129 -111 105 -33
134 -53 134 -97 0 -58 -84 -86 -177 -59 -30 9 -58 21 -61 26 -10 16 -35 12
-35 -5 0 -26 97 -65 160 -65 71 0 120 24 143 72 16 33 17 40 3 72 -19 45 -61
71 -142 86 -79 15 -114 40 -114 81 0 38 39 78 77 81 50 2 87 -4 116 -18 48
-25 65 1 19 28 -36 22 -117 30 -164 16z"/>
<path d="M1830 360 l0 -210 94 0 c83 0 100 3 147 28 70 37 103 96 102 186 -1
70 -19 119 -60 158 -42 40 -74 48 -184 48 l-99 0 0 -210z m231 157 c93 -61
105 -209 24 -287 -35 -34 -39 -35 -126 -38 l-89 -4 0 176 0 176 79 0 c64 0 84
-4 112 -23z"/>
<path d="M855 456 c-57 -26 -88 -70 -93 -131 -5 -67 9 -105 55 -145 28 -25 42
-30 87 -30 117 0 189 113 142 224 -29 70 -127 112 -191 82z m113 -42 c49 -34
67 -116 37 -174 -18 -35 -62 -60 -103 -60 -53 0 -112 66 -112 125 0 37 34 99
62 112 34 17 90 15 116 -3z"/>
<path d="M1255 463 c-11 -3 -34 -16 -52 -29 l-32 -24 -3 22 c-2 12 -9 23 -15
26 -10 3 -13 -45 -13 -218 0 -173 3 -221 13 -218 8 3 13 34 15 97 l3 92 35
-30 c69 -61 176 -32 210 56 47 121 -49 255 -161 226z m100 -68 c19 -19 36 -48
40 -65 15 -66 -44 -150 -106 -150 -71 0 -119 51 -119 127 1 82 38 122 114 123
31 0 45 -6 71 -35z"/>
<path d="M2324 451 c-150 -69 -104 -301 60 -301 67 0 139 42 121 70 -5 8 -14
5 -29 -8 -51 -47 -93 -53 -144 -22 -27 17 -62 70 -62 95 0 3 61 5 135 5 l135
0 0 25 c0 37 -35 100 -68 124 -43 30 -99 35 -148 12z m111 -25 c33 -14 65 -59
65 -91 0 -13 -18 -15 -115 -15 -77 0 -115 4 -115 11 0 28 34 79 63 93 40 19
59 20 102 2z"/>
<path d="M2670 457 c-52 -19 -74 -33 -63 -40 6 -4 29 1 51 10 77 30 140 -2
145 -73 l2 -28 -72 3 c-60 2 -79 -1 -107 -18 -55 -35 -58 -108 -4 -145 32 -23
106 -20 147 5 27 16 36 18 42 7 5 -7 9 -16 9 -20 0 -5 9 -8 20 -8 21 0 28 24
10 35 -5 3 -10 46 -10 94 0 100 -12 143 -44 165 -34 22 -87 27 -126 13z m114
-157 c60 -23 11 -111 -70 -126 -75 -14 -125 70 -68 115 29 23 94 28 138 11z"/>
<path d="M1486 403 c13 -32 29 -67 34 -78 46 -101 70 -161 70 -177 0 -34 -32
-89 -57 -99 -12 -4 -23 -13 -23 -19 0 -17 56 -11 72 8 16 17 168 391 168 411
0 6 -6 11 -13 11 -12 0 -24 -29 -90 -202 -12 -32 -27 -58 -33 -58 -6 0 -16 15
-21 33 -6 17 -29 75 -51 127 -30 72 -45 96 -61 98 -20 3 -20 2 5 -55z"/>
</g>
</svg>
