<?xml version="1.0" standalone="no"?>
<!DOCTYPE svg PUBLIC "-//W3C//DTD SVG 20010904//EN"
 "http://www.w3.org/TR/2001/REC-SVG-20010904/DTD/svg10.dtd">
<svg version="1.0" xmlns="http://www.w3.org/2000/svg"
 width="128.000000pt" height="34.000000pt" viewBox="0 0 128.000000 34.000000"
 preserveAspectRatio="xMidYMid meet">

<g transform="translate(0.000000,34.000000) scale(0.100000,-0.100000)"
fill="#000000" stroke="none">
<path d="M42 268 c-20 -20 -14 -80 13 -123 25 -41 32 -75 15 -75 -5 0 -12 11
-16 25 -7 27 -24 34 -24 11 0 -50 48 -64 76 -21 13 21 14 30 3 62 -6 21 -20
51 -30 68 -21 33 -24 55 -9 55 5 0 12 -11 16 -25 8 -34 26 -32 22 3 -2 20 -9
28 -28 30 -14 2 -31 -3 -38 -10z"/>
<path d="M130 170 l0 -110 25 0 c25 0 25 1 25 80 0 47 4 80 10 80 6 0 10 -33
10 -80 0 -76 1 -80 23 -80 22 0 22 3 19 78 -4 99 -7 105 -37 100 -21 -4 -25
-1 -25 18 0 19 -5 24 -25 24 l-25 0 0 -110z"/>
<path d="M518 255 c-6 -31 5 -32 20 -2 9 17 11 0 9 -86 l-2 -107 30 0 30 0 -3
107 c-2 99 -1 106 12 83 l15 -25 1 28 c0 26 -2 27 -54 27 -49 0 -54 -2 -58
-25z"/>
<path d="M1060 260 c0 -13 -7 -20 -20 -20 -27 0 -40 -29 -40 -90 0 -76 11 -90
71 -90 43 0 50 3 45 16 -3 9 -6 58 -6 110 0 94 0 94 -25 94 -18 0 -25 -5 -25
-20z m0 -111 c0 -44 -4 -68 -10 -64 -18 11 -12 135 7 135 2 0 3 -32 3 -71z"/>
<path d="M276 218 c-35 -49 -11 -158 35 -158 35 0 59 36 59 88 0 56 -21 92
-55 92 -13 0 -31 -10 -39 -22z m54 -58 c0 -64 -7 -93 -21 -84 -10 6 -12 137
-3 147 15 15 24 -8 24 -63z"/>
<path d="M390 135 l0 -105 29 0 c24 0 28 3 24 20 -4 16 -2 19 12 14 29 -11 45
23 45 92 0 71 -8 81 -67 83 l-43 1 0 -105z m70 9 c0 -36 -4 -64 -10 -64 -6 0
-10 30 -10 71 0 44 4 68 10 64 6 -3 10 -35 10 -71z"/>
<path d="M655 150 c0 -90 0 -90 25 -90 25 0 26 1 22 70 -4 61 -2 69 12 64 20
-8 33 23 17 39 -9 9 -14 8 -21 -3 -7 -10 -10 -11 -10 -2 0 6 -10 12 -22 12
-22 0 -23 -3 -23 -90z"/>
<path d="M766 218 c-23 -33 -21 -113 4 -138 23 -23 50 -26 68 -8 15 15 16 48
2 48 -5 0 -10 -9 -10 -19 0 -25 -20 -38 -31 -20 -5 8 -9 26 -9 42 0 23 4 27
30 27 27 0 30 3 30 29 0 56 -55 81 -84 39z m44 -23 c0 -19 -4 -35 -10 -35 -11
0 -14 53 -3 63 11 12 13 8 13 -28z"/>
<path d="M870 150 c0 -89 0 -90 25 -90 25 0 25 1 25 80 0 47 4 80 10 80 6 0
10 -33 10 -80 0 -76 1 -80 23 -80 22 0 22 2 19 78 -2 42 -8 82 -13 88 -5 6
-30 12 -54 12 l-45 1 0 -89z"/>
<path d="M1130 214 c0 -14 4 -23 10 -19 6 3 10 13 10 21 0 8 4 14 9 14 4 0 0
-35 -10 -77 -10 -43 -19 -81 -19 -85 0 -5 18 -8 40 -8 37 0 40 2 39 28 0 27
-1 27 -11 5 -22 -46 -26 -21 -7 50 25 98 26 97 -21 97 -36 0 -40 -2 -40 -26z"/>
</g>
</svg>
